<?xml version="1.0" encoding="utf-8"?>
<!-- Generator: Adobe Illustrator 22.1.0, SVG Export Plug-In . SVG Version: 6.00 Build 0)  -->
<svg version="1.1" xmlns="http://www.w3.org/2000/svg" xmlns:xlink="http://www.w3.org/1999/xlink" x="0px" y="0px"
	 viewBox="0 0 307 306" style="enable-background:new 0 0 307 306;" xml:space="preserve">
<style type="text/css">
	.st0{fill:url(#Form_1_Kopie_4_1_);}
	.st1{fill:url(#Form_1_Kopie_2_1_);}
	.st2{fill:url(#Form_1_Kopie_3_1_);}
	.st3{fill:#FFFFFF;}
</style>
<g id="Ebene_1">
	<g id="logo">
		<g id="layers">
			
				<linearGradient id="Form_1_Kopie_4_1_" gradientUnits="userSpaceOnUse" x1="153.45" y1="11.45" x2="153.45" y2="230.75" gradientTransform="matrix(1 0 0 -1 0 308)">
				<stop  offset="0" style="stop-color:#FF5927"/>
				<stop  offset="1" style="stop-color:#FF5A18"/>
			</linearGradient>
			<path id="Form_1_Kopie_4" class="st0" d="M25.5,167.8l103.9-82.6c13.3-10.6,34.8-10.6,48.1,0l103.9,82.6
				c13.3,10.6,13.3,27.7,0,38.2l-103.9,82.6c-13.3,10.6-34.8,10.6-48.1,0L25.5,206C12.2,195.5,12.2,178.4,25.5,167.8z"/>
			
				<linearGradient id="Form_1_Kopie_2_1_" gradientUnits="userSpaceOnUse" x1="153.4864" y1="45.25" x2="153.4864" y2="264.55" gradientTransform="matrix(1 0 0 -1 0 308)">
				<stop  offset="0" style="stop-color:#FF3624"/>
				<stop  offset="1" style="stop-color:#FF5919"/>
			</linearGradient>
			<path id="Form_1_Kopie_2" class="st1" d="M25.5,134l103.9-82.6c13.3-10.6,34.8-10.6,48.1,0l104,82.6c13.3,10.6,13.3,27.7,0,38.2
				l-103.9,82.6c-13.3,10.6-34.8,10.6-48.1,0l-104-82.6c-6.7-5.4-10.1-12.4-10-19.4C15.7,145.9,19,139.2,25.5,134z"/>
			
				<linearGradient id="Form_1_Kopie_3_1_" gradientUnits="userSpaceOnUse" x1="153.45" y1="79.05" x2="153.45" y2="298.45" gradientTransform="matrix(1 0 0 -1 0 308)">
				<stop  offset="0" style="stop-color:#FF0036"/>
				<stop  offset="1" style="stop-color:#FF5B18"/>
			</linearGradient>
			<path id="Form_1_Kopie_3" class="st2" d="M25.5,100.1l103.9-82.6c13.3-10.6,34.8-10.6,48.1,0l103.9,82.6
				c13.3,10.6,13.3,27.7,0,38.2L177.5,221c-13.3,10.6-34.8,10.6-48.1,0L25.5,138.3C12.2,127.8,12.2,110.7,25.5,100.1z"/>
		</g>
	</g>
</g>
<g id="rocket">
	<g>
		<title>rocket icon</title>
		<desc>rocket icon from the IconExperience.com O-Collection. Copyright by INCORS GmbH (www.incors.com).</desc>
		<path id="curve2_1_" class="st3" d="M196.3,144c7.4-5.5,17.5-11.5,30.5-3.8c2.3,1.4,5.5,1.2,7.6-0.4l1.1-0.9
			c1.9-1.5,2.3-3.8,0.8-5.6c-22.7-28-41.9-31.2-57.4-20.2c-11.2-13.9-26.6-26.8-45.7-34.4l-34.2,26.5c9.8,14.8,26.5,26.8,44.3,35.4
			c-14.2,12.1-10,26.9,26.1,44.5c2.3,1.1,5.2,0.9,7.2-0.6l1.1-0.9c2.1-1.6,2.3-4.1,0.5-5.9c-9.9-10-2.2-17.9,4.9-23.6
			c2.3,0.5,4.5,0.9,6.6,1.2l8.1-6.3C197.4,147.5,196.9,145.8,196.3,144z M120.1,95.3c6.8-5.3,17.8-5.3,24.5,0c6.8,5.3,6.8,13.8,0,19
			c-6.8,5.3-17.8,5.3-24.5,0C113.4,109,113.4,100.5,120.1,95.3z"/>
		<path id="curve1_1_" class="st3" d="M124.2,99.1c4.5-3.5,11.8-3.5,16.4,0c4.5,3.5,4.5,9.2,0,12.7c-4.5,3.5-11.8,3.5-16.4,0
			C119.7,108.3,119.7,102.6,124.2,99.1z"/>
		<path id="curve0_1_" class="st3" d="M95.5,72.5c11.5-0.1,22.2,1.8,32,5.1l-31.3,24.2c-4.2-7.6-6.6-15.9-6.5-24.8
			c0-1.2,0.6-2.3,1.7-3.1C92.6,72.9,94,72.5,95.5,72.5z"/>
	</g>
</g>
</svg>
